<svg xmlns="http://www.w3.org/2000/svg" xmlns:xlink="http://www.w3.org/1999/xlink" preserveAspectRatio="xMidYMid meet" version="1.0" viewBox="-0.1 -0.8 500.0 499.9" zoomAndPan="magnify" style="fill: rgb(0, 0, 0);" original_string_length="996"><g id="__id187_sy7djlkcyi"><path d="M499.9,253H279.1l213.2,57.1l-2,7.4l-213.2-57.1l191.2,110.4l-3.9,6.7L273.3,267.1l156.1,156.1l-5.4,5.5 L267.8,272.6l110.4,191.2l-6.7,3.9L261.2,276.4l57.1,213.2l-7.4,2l-57.1-213.2v220.7H246V278.4l-57.1,213.2l-7.4-2l57.1-213.2 L128.2,467.6l-6.7-3.9l110.4-191.2L75.8,428.7l-5.4-5.5l156.1-156.1L35.3,377.5l-3.9-6.7l191.2-110.4L9.4,317.6l-2-7.4L220.6,253 H-0.1v-7.7h220.7L7.4,188.2l2-7.4l213.2,57.1L31.4,127.5l3.9-6.7l191.2,110.4L70.4,75.1l5.4-5.5l156.1,156.1L121.5,34.6l6.7-3.9 l110.4,191.2L181.4,8.7l7.4-2L246,219.9V-0.8h7.7v220.7L310.8,6.7l7.4,2l-57.1,213.2L371.5,30.7l6.7,3.9L267.8,225.7L423.9,69.7 l5.4,5.5L273.3,231.2l191.2-110.4l3.9,6.7L277.1,237.9l213.2-57.1l2,7.4l-213.2,57.1h220.7V253z" style="fill: rgb(85, 225, 174);"/></g></svg>